<svg xmlns="http://www.w3.org/2000/svg" xmlns:xlink="http://www.w3.org/1999/xlink" width="128" zoomAndPan="magnify" viewBox="0 0 96 95.999999" height="128" preserveAspectRatio="xMidYMid meet" version="1.0"><defs><clipPath id="e6e80d8a26"><path d="M 48 0 C 21.492188 0 0 21.492188 0 48 C 0 74.507812 21.492188 96 48 96 C 74.507812 96 96 74.507812 96 48 C 96 21.492188 74.507812 0 48 0 Z M 48 0 " clip-rule="nonzero"/></clipPath><clipPath id="ea9862edb8"><path d="M 10 23 L 86 23 L 86 73.097656 L 10 73.097656 Z M 10 23 " clip-rule="nonzero"/></clipPath></defs><g clip-path="url(#e6e80d8a26)"><rect x="-9.6" width="115.2" fill="#000000" y="-9.6" height="115.199999" fill-opacity="1"/></g><g clip-path="url(#ea9862edb8)"><path fill="#ffffff" d="M 60.109375 23.113281 L 60.109375 28.378906 L 66.382812 28.378906 L 68.929688 33.476562 L 44.414062 38.828125 L 31.648438 25.425781 L 31.445312 25.230469 C 28.875 23.042969 25.246094 22.871094 22.832031 24.808594 C 20.765625 26.46875 20.035156 29.316406 20.847656 31.972656 L 20.800781 31.988281 L 25.769531 44.40625 L 10.082031 48.503906 C 10.082031 48.503906 14.644531 62.222656 34.3125 65.765625 L 35.15625 67.878906 L 25.875 67.878906 L 25.875 73.144531 L 42.929688 73.144531 L 27.464844 34.488281 L 25.988281 30.75 C 25.652344 30.03125 25.703125 29.261719 26.128906 28.917969 C 26.550781 28.574219 27.324219 28.691406 27.949219 29.175781 L 48.078125 50.304688 C 49.046875 51.503906 49.628906 53.691406 49.972656 55.589844 C 50.269531 57.230469 48.65625 58.558594 47.125 57.898438 C 44.917969 56.953125 42.058594 55.535156 39.984375 53.816406 C 41.503906 57.320312 45.542969 64.53125 45.542969 64.53125 C 46.371094 64.804688 47.773438 65.222656 48.605469 65.222656 C 49.214844 65.222656 49.808594 65.117188 50.40625 64.96875 L 50.449219 65.09375 L 59.394531 61.957031 L 66.570312 73.144531 L 78.542969 73.144531 L 78.542969 67.878906 L 69.449219 67.878906 L 64.503906 60.164062 L 72.695312 57.289062 C 74.335938 58.082031 75.558594 58.574219 75.558594 58.574219 L 77.359375 59.273438 L 78.570312 57.765625 C 78.570312 57.765625 80.46875 55.402344 82.210938 52.351562 C 83.953125 49.296875 85.960938 45.601562 84.890625 41.605469 C 83.585938 36.753906 79.382812 33.582031 74.644531 33.125 L 69.636719 23.113281 Z M 73.066406 38.097656 C 76.136719 37.90625 78.972656 39.871094 79.804688 42.96875 C 80.050781 43.890625 79.140625 47.109375 77.636719 49.742188 C 76.679688 51.421875 76.230469 51.917969 75.613281 52.757812 C 74.65625 52.339844 74.019531 52.132812 72.351562 51.15625 C 69.730469 49.628906 67.335938 47.300781 67.089844 46.378906 L 62.003906 47.742188 C 62.730469 50.457031 64.644531 52.308594 66.734375 53.796875 L 56.90625 57.246094 C 56.925781 56.480469 56.835938 55.683594 56.632812 54.859375 C 56.078125 52.589844 54.667969 50.09375 52.046875 46.84375 L 48.660156 43.289062 L 71.722656 38.257812 L 71.738281 38.316406 C 72.179688 38.195312 72.628906 38.125 73.066406 38.097656 Z M 27.765625 49.398438 L 32.007812 60.007812 C 23.164062 58.097656 20.242188 55.316406 17.914062 52.238281 Z M 27.765625 49.398438 " fill-opacity="1" fill-rule="nonzero"/></g></svg>